<?xml version="1.0" encoding="UTF-8" standalone="no"?>
<svg
   viewBox="0 0 1279.3118 298.04738">
  <g
     transform="translate(-513.38752,-515.77083)"
     id="layer1">
    <path
       id="path4136-4-9-7-7-6"
       d="m 689.83431,515.98656 a 102.28295,102.45565 0 0 0 -49.5644,10.2539 102.28295,102.45565 0 0 0 -57.21868,86.01368 102.28293,102.45562 0 0 0 -12.30663,4.93359 102.28293,102.45562 0 0 0 -47.11127,136.99414 102.28293,102.45562 0 0 0 136.76156,47.19141 102.28293,102.45562 0 0 0 11.50584,-6.72266 102.28297,102.45566 0.00146137 0 0 102.8456,7.86719 102.28297,102.45566 0.00146137 0 0 47.11128,-136.99414 102.28297,102.45566 0.00146137 0 0 -34.832,-39.94336 102.28295,102.45565 0 0 0 -9.99413,-52.14844 102.28295,102.45565 0 0 0 -87.19717,-57.44531 z"
       style="fill:#ffffff;fill-opacity:1;stroke:none;stroke-width:70;stroke-miterlimit:4;stroke-dasharray:none;stroke-opacity:1" />
    <g class="text">
      <path
         d="m 955.44561,799.79742 q -6.79321,3.58887 -16.91894,3.58887 -13.07373,0 -20.93506,-8.41675 -7.86132,-8.41674 -7.86132,-22.08862 0,-14.69726 8.84399,-23.75488 8.84399,-9.05761 22.43042,-9.05761 8.71582,0 14.44091,2.52075 l 0,7.6477 q -6.57959,-3.67431 -14.52636,-3.67431 -10.55298,0 -17.13257,7.04956 -6.53686,7.04956 -6.53686,18.84155 0,11.19384 6.10961,17.85888 6.15235,6.62232 16.10718,6.62232 9.22852,0 15.979,-4.10157 l 0,6.96411 z" />
      <path
         d="m 992.61602,803.38629 q -13.031,0 -20.89233,-8.58764 -7.8186,-8.58765 -7.8186,-22.34497 0,-14.78272 7.9895,-23.58399 7.9895,-8.80126 21.74682,-8.80126 12.68919,0 20.42239,8.54492 7.7759,8.54492 7.7759,22.34497 0,14.99633 -7.9468,23.71215 -7.9468,8.71582 -21.27688,8.71582 z m 0.5127,-56.82372 q -9.65576,0 -15.67993,6.96411 -6.02417,6.96411 -6.02417,18.28613 0,11.32202 5.85327,18.2434 5.89599,6.87867 15.33813,6.87867 10.08298,0 15.89358,-6.57959 5.8105,-6.57959 5.8105,-18.41431 0,-12.13379 -5.6396,-18.7561 -5.6397,-6.62231 -15.55178,-6.62231 z" />
      <path
         d="m 1033.888,802.3609 0,-61.26708 16.9189,0 q 32.3853,0 32.3853,29.8645 0,14.18456 -9.0149,22.81494 -8.9722,8.58764 -24.054,8.58764 l -16.2353,0 z m 7.1777,-54.77294 0,48.2788 9.1431,0 q 12.0483,0 18.7561,-6.45141 6.7077,-6.45142 6.7077,-18.28614 0,-23.54125 -25.0366,-23.54125 l -9.5703,0 z" />
      <path
         d="m 1127.7112,802.3609 -32.4707,0 0,-61.26708 31.1035,0 0,6.49414 -23.9257,0 0,20.37963 22.1313,0 0,6.45142 -22.1313,0 0,21.44775 25.2929,0 0,6.49414 z" />
      <path
         style="fill:#56c4c5;fill-opacity:1"
         d="m 1166.2061,741.09382 -29.3945,71.43554 -6.5369,0 29.3091,-71.43554 6.6223,0 z" />
      <path
         d="m 1173.6829,802.3609 0,-61.26708 16.9189,0 q 32.3853,0 32.3853,29.8645 0,14.18456 -9.0149,22.81494 -8.9722,8.58764 -24.054,8.58764 l -16.2353,0 z m 7.1777,-54.77294 0,48.2788 9.1431,0 q 12.0483,0 18.7561,-6.45141 6.7078,-6.45142 6.7078,-18.28614 0,-23.54125 -25.0367,-23.54125 l -9.5703,0 z" />
      <path
         d="m 1267.5061,802.3609 -32.4707,0 0,-61.26708 31.1035,0 0,6.49414 -23.9257,0 0,20.37963 22.1313,0 0,6.45142 -22.1313,0 0,21.44775 25.2929,0 0,6.49414 z" />
      <path
         d="m 1276.4356,799.88287 0,-8.45947 q 1.4526,1.28174 3.4607,2.30713 2.0508,1.02539 4.2724,1.75171 2.2644,0.68359 4.5288,1.06811 2.2644,0.38453 4.1871,0.38453 6.6223,0 9.8693,-2.43531 3.2898,-2.47802 3.2898,-7.09228 0,-2.47803 -1.1108,-4.31519 -1.0681,-1.83715 -2.9907,-3.33252 -1.9226,-1.53808 -4.5716,-2.90527 -2.6062,-1.40991 -5.6396,-2.948 -3.2044,-1.62353 -5.9815,-3.28979 -2.7771,-1.66626 -4.8278,-3.67432 -2.0508,-2.00805 -3.2471,-4.52881 -1.1536,-2.56347 -1.1536,-5.98144 0,-4.18701 1.8372,-7.26318 1.8371,-3.1189 4.8279,-5.12696 2.9907,-2.00805 6.7932,-2.99072 3.8452,-0.98266 7.8186,-0.98266 9.0576,0 13.2019,2.17895 l 0,8.07495 q -5.426,-3.75976 -13.9282,-3.75976 -2.3499,0 -4.6997,0.51269 -2.3499,0.46997 -4.1871,1.58081 -1.8371,1.11084 -2.9907,2.86255 -1.1535,1.75171 -1.1535,4.27246 0,2.34985 0.8544,4.05884 0.8973,1.70898 2.6062,3.11889 1.709,1.40992 4.1443,2.73438 2.4781,1.32446 5.6824,2.90527 3.2898,1.62354 6.2378,3.41797 2.948,1.79443 5.1697,3.97339 2.2217,2.17895 3.5034,4.82788 1.3245,2.64893 1.3245,6.06689 0,4.52881 -1.7945,7.69043 -1.7517,3.1189 -4.7851,5.08423 -2.9908,1.96533 -6.9214,2.81982 -3.9307,0.89722 -8.2886,0.89722 -1.4526,0 -3.5889,-0.25635 -2.1362,-0.21362 -4.3579,-0.68359 -2.2216,-0.42725 -4.2297,-1.06812 -1.9653,-0.68359 -3.1616,-1.49536 z" />
      <path
         d="m 1332.9602,802.3609 -7.1777,0 0,-61.26708 7.1777,0 0,61.26708 z" />
      <path
         d="m 1394.8255,798.17389 q -9.2285,5.2124 -20.5078,5.2124 -13.1165,0 -21.2342,-8.45947 -8.0749,-8.45947 -8.0749,-22.38769 0,-14.2273 8.9721,-23.32764 9.0149,-9.14306 22.815,-9.14306 9.9975,0 16.7908,3.24707 l 0,7.94677 q -7.4341,-4.6997 -17.6026,-4.6997 -10.2966,0 -16.8762,7.09228 -6.5796,7.09228 -6.5796,18.37158 0,11.62109 6.1096,18.28613 6.1096,6.62232 16.5772,6.62232 7.1777,0 12.4328,-2.86255 l 0,-17.17529 -13.4155,0 0,-6.49414 20.5933,0 0,27.77099 z" />
      <path
         d="m 1458.3997,802.3609 -8.8013,0 -31.5307,-48.83422 q -1.1963,-1.83716 -1.9654,-3.84522 l -0.2563,0 q 0.3418,1.96533 0.3418,8.41675 l 0,44.26269 -7.1778,0 0,-61.26708 9.314,0 30.6763,48.06518 q 1.9226,2.99072 2.478,4.10156 l 0.1709,0 q -0.4273,-2.64893 -0.4273,-9.01489 l 0,-43.15185 7.1778,0 0,61.26708 z" />
      <path
         style="fill:#add68a;fill-opacity:1"
         d="m 1501.167,741.09382 -29.3945,71.43554 -6.5369,0 29.3091,-71.43554 6.6223,0 z" />
      <path
         d="m 1533.3386,803.38629 q -13.031,0 -20.8923,-8.58764 -7.8186,-8.58765 -7.8186,-22.34497 0,-14.78272 7.9895,-23.58399 7.9895,-8.80126 21.7468,-8.80126 12.6892,0 20.4224,8.54492 7.7759,8.54492 7.7759,22.34497 0,14.99633 -7.9468,23.71215 -7.9468,8.71582 -21.2769,8.71582 z m 0.5127,-56.82372 q -9.6557,0 -15.6799,6.96411 -6.0242,6.96411 -6.0242,18.28613 0,11.32202 5.8533,18.2434 5.896,6.87867 15.3381,6.87867 10.083,0 15.8936,-6.57959 5.8105,-6.57959 5.8105,-18.41431 0,-12.13379 -5.6396,-18.7561 -5.6397,-6.62231 -15.5518,-6.62231 z" />
      <path
         d="m 1581.7883,779.20416 0,23.15674 -7.1777,0 0,-61.26708 16.8335,0 q 9.8266,0 15.2099,4.78515 5.4261,4.78516 5.4261,13.50098 0,8.71582 -6.0242,14.27002 -5.9814,5.55419 -16.1926,5.55419 l -8.075,0 z m 0,-31.6162 0,25.12206 7.5196,0 q 7.434,0 11.322,-3.37524 3.9306,-3.41797 3.9306,-9.61304 0,-12.13378 -14.3554,-12.13378 l -8.4168,0 z" />
      <path
         d="m 1620.7959,799.88287 0,-8.45947 q 1.4526,1.28174 3.4607,2.30713 2.0508,1.02539 4.2725,1.75171 2.2644,0.68359 4.5288,1.06811 2.2644,0.38453 4.187,0.38453 6.6223,0 9.8694,-2.43531 3.2897,-2.47802 3.2897,-7.09228 0,-2.47803 -1.1108,-4.31519 -1.0681,-1.83715 -2.9907,-3.33252 -1.9226,-1.53808 -4.5715,-2.90527 -2.6062,-1.40991 -5.6397,-2.948 -3.2043,-1.62353 -5.9814,-3.28979 -2.7771,-1.66626 -4.8279,-3.67432 -2.0508,-2.00805 -3.2471,-4.52881 -1.1536,-2.56347 -1.1536,-5.98144 0,-4.18701 1.8372,-7.26318 1.8372,-3.1189 4.8279,-5.12696 2.9907,-2.00805 6.7932,-2.99072 3.8452,-0.98266 7.8186,-0.98266 9.0576,0 13.2019,2.17895 l 0,8.07495 q -5.426,-3.75976 -13.9282,-3.75976 -2.3499,0 -4.6997,0.51269 -2.3499,0.46997 -4.187,1.58081 -1.8372,1.11084 -2.9908,2.86255 -1.1535,1.75171 -1.1535,4.27246 0,2.34985 0.8545,4.05884 0.8972,1.70898 2.6062,3.11889 1.709,1.40992 4.1443,2.73438 2.478,1.32446 5.6823,2.90527 3.2898,1.62354 6.2378,3.41797 2.948,1.79443 5.1697,3.97339 2.2217,2.17895 3.5034,4.82788 1.3245,2.64893 1.3245,6.06689 0,4.52881 -1.7945,7.69043 -1.7517,3.1189 -4.7851,5.08423 -2.9907,1.96533 -6.9214,2.81982 -3.9307,0.89722 -8.2886,0.89722 -1.4526,0 -3.5888,-0.25635 -2.1363,-0.21362 -4.3579,-0.68359 -2.2217,-0.42725 -4.2298,-1.06812 -1.9653,-0.68359 -3.1616,-1.49536 z" />
    </g>
    <ellipse
       ry="102.31623"
       rx="102.42252"
       transform="matrix(0.43765451,0.89914322,-0.89856113,0.43884838,0,0)"
       cy="-345.51935"
       cx="856.21185"
       style="fill:#21409a;fill-opacity:0.58823529;stroke:none;stroke-width:70;stroke-miterlimit:4;stroke-dasharray:none;stroke-opacity:1" />
    <ellipse
       ry="102.31621"
       rx="102.4225"
       transform="matrix(0.43765451,0.89914322,-0.89856113,0.43884838,0,0)"
       cy="-243.20296"
       cx="907.42316"
       style="fill:#00acac;fill-opacity:0.58823529;stroke:none;stroke-width:70;stroke-miterlimit:4;stroke-dasharray:none;stroke-opacity:1" />
    <ellipse
       ry="102.31625"
       rx="102.42253"
       transform="matrix(0.43765451,0.89914322,-0.89856113,0.43884838,0,0)"
       cy="-345.51935"
       cx="958.63446"
       style="fill:#6cbf43;fill-opacity:0.58823529;stroke:none;stroke-width:2.04738808;stroke-miterlimit:4;stroke-dasharray:none;stroke-opacity:0.56470588" />
    <g class="text">
      <path
         d="m 941.7166,726.64655 -29.60205,0 -13.8855,-43.48755 -83.0078,0 -14.03809,43.48755 -28.22875,0 66.22313,-199.43236 37.23145,0 65.30761,199.43236 z m -51.26953,-67.74902 -33.72192,-106.65893 -33.72192,106.65893 67.44384,0 z" />
      <path
         d="m 1093.8467,726.64655 -114.74607,0 0,-199.43236 27.61837,0 0,176.239 87.1277,0 0,23.19336 z" />
      <path
         d="m 1279.0884,625.63337 q 0,26.85547 -6.4087,46.38672 -6.2561,19.53124 -17.0898,32.34863 -10.6812,12.66479 -25.177,18.92089 -14.3433,6.10352 -30.365,6.10352 -19.2261,0 -33.5694,-6.86646 -14.1906,-7.01904 -23.6511,-20.1416 -9.3078,-13.12255 -13.8855,-31.89086 -4.5776,-18.9209 -4.5776,-42.57202 0,-26.55029 6.2561,-46.08154 6.2561,-19.53125 16.9372,-32.19604 10.8338,-12.81738 25.177,-18.9209 14.3433,-6.2561 30.365,-6.2561 19.2261,0 33.4168,7.01904 14.3432,7.01904 23.8037,20.1416 9.4604,12.96997 14.0381,31.73828 4.7302,18.76831 4.7302,42.26684 z m -28.2288,1.98364 q 0,-17.5476 -2.7465,-32.04345 -2.594,-14.64844 -8.545,-25.177 -5.9509,-10.52856 -15.4113,-16.3269 -9.3079,-5.79834 -22.583,-5.79834 -12.8174,0 -22.1253,6.2561 -9.1553,6.10352 -15.1062,16.78467 -5.9509,10.52856 -8.8501,24.87182 -2.8992,14.19067 -2.8992,30.2124 0,17.70019 2.7466,32.34863 2.7466,14.49585 8.5449,25.02441 5.951,10.37598 15.2588,16.17432 9.3079,5.79834 22.4305,5.79834 12.8173,0 22.1252,-6.10352 9.3079,-6.2561 15.2588,-16.78466 6.1035,-10.68116 9.0027,-24.87183 2.8991,-14.19067 2.8991,-30.36499 z" />
      <path
         d="m 1441.5945,726.64655 -35.4004,0 -58.136,-124.35912 -16.7847,-39.97803 0,100.55541 0,63.78174 -25.3296,0 0,-199.43236 34.9427,0 55.3894,117.79784 19.989,45.62378 0,-106.81152 0,-56.6101 25.3296,0 0,199.43236 z" />
      <path
         style="fill:#5664af;fill-opacity:1"
         d="m 1614.9343,666.98469 q 0,14.34326 -5.6457,25.48217 -5.4932,10.98633 -15.8692,18.61572 -10.2234,7.6294 -24.8718,11.59668 -14.4959,3.96729 -32.3486,3.96729 l -52.1851,0 0,-199.43236 57.0679,0 q 66.6809,0 66.6809,48.52295 0,16.17431 -7.782,27.77099 -7.6294,11.59668 -25.0244,17.24243 8.0871,1.52588 15.2588,5.18799 7.3242,3.66211 12.8174,9.46045 5.4931,5.79834 8.6975,13.7329 3.2043,7.93457 3.2043,17.85279 z m -35.4004,-87.58544 q 0,-6.10352 -1.831,-11.4441 -1.8311,-5.49316 -6.4087,-9.30786 -4.5777,-3.96728 -12.3596,-6.2561 -7.782,-2.28882 -19.6839,-2.28882 l -28.0761,0 0,62.40844 27.1606,0 q 9.3079,0 16.7847,-1.98364 7.6294,-1.98364 12.9699,-6.10351 5.4932,-4.11988 8.3924,-10.22339 3.0517,-6.2561 3.0517,-14.80102 z m 6.5613,88.50096 q 0,-7.62939 -3.2043,-13.73291 -3.2044,-6.10351 -9.3079,-10.22338 -6.1035,-4.27246 -14.9536,-6.56128 -8.6975,-2.28882 -19.6839,-2.28882 l -27.7709,0 0,68.66454 28.6865,0 q 23.3459,0 34.79,-8.6975 11.4441,-8.69751 11.4441,-27.16065 z" />
      <path
         style="fill:#5664af;fill-opacity:1"
         d="m 1792.6992,624.71784 q 0,14.34326 -2.2888,27.46582 -2.1362,13.12256 -7.0191,24.41406 -4.8828,11.2915 -12.6648,20.59937 -7.7819,9.15527 -19.0734,15.71655 -11.2915,6.56128 -26.2452,10.22338 -14.9536,3.50953 -34.027,3.50953 l -42.7247,0 0,-199.43236 51.4222,0 q 46.6919,0 69.58,24.10889 23.0408,23.95629 23.0408,73.39476 z m -28.5339,1.98365 q 0,-21.20972 -3.9673,-35.85815 -3.9673,-14.64844 -12.0545,-23.65112 -8.0871,-9.00269 -20.2941,-12.96997 -12.2071,-4.11988 -28.6866,-4.11988 l -23.3459,0 0,153.04564 20.2942,0 q 68.0542,0 68.0542,-76.44652 z" />
    </g>
  </g>
</svg>
